<svg xmlns="http://www.w3.org/2000/svg" width="1400" height="840" viewBox="0 0 1400 840" fill="none">
  <rect width="1400" height="840" rx="28" fill="#09131A"/>
  <rect x="28" y="28" width="1344" height="784" rx="24" fill="#0F1D26" stroke="#244453" stroke-width="2"/>
  <rect x="56" y="56" width="270" height="728" rx="20" fill="#102532"/>
  <rect x="354" y="56" width="458" height="728" rx="20" fill="#102532"/>
  <rect x="840" y="56" width="504" height="728" rx="20" fill="#102532"/>
  <rect x="78" y="92" width="226" height="42" rx="14" fill="#19303D"/>
  <rect x="78" y="156" width="226" height="56" rx="14" fill="#FF6F61"/>
  <rect x="78" y="226" width="226" height="56" rx="14" fill="#19303D"/>
  <rect x="78" y="296" width="226" height="56" rx="14" fill="#19303D"/>
  <rect x="78" y="366" width="226" height="56" rx="14" fill="#19303D"/>
  <rect x="386" y="92" width="224" height="24" rx="12" fill="#72E0A0"/>
  <rect x="386" y="132" width="328" height="18" rx="9" fill="#8CA8BC"/>
  <rect x="386" y="178" width="394" height="176" rx="18" fill="url(#a)" stroke="#2D5A6C"/>
  <rect x="386" y="384" width="120" height="18" rx="9" fill="#F4FBFF"/>
  <rect x="386" y="422" width="190" height="48" rx="14" fill="#142632"/>
  <rect x="590" y="422" width="190" height="48" rx="14" fill="#142632"/>
  <rect x="386" y="484" width="394" height="182" rx="18" fill="#142632"/>
  <rect x="872" y="92" width="176" height="22" rx="11" fill="#FFD166"/>
  <rect x="872" y="136" width="438" height="280" rx="18" fill="#142632"/>
  <rect x="872" y="438" width="438" height="138" rx="18" fill="#142632"/>
  <rect x="872" y="598" width="438" height="150" rx="18" fill="#142632"/>
  <text x="78" y="126" fill="#8CA8BC" font-family="Segoe UI, Arial, sans-serif" font-size="20" font-weight="600">Operations</text>
  <text x="98" y="191" fill="#FFFFFF" font-family="Segoe UI, Arial, sans-serif" font-size="24" font-weight="700">Merge</text>
  <text x="98" y="260" fill="#D7ECFF" font-family="Segoe UI, Arial, sans-serif" font-size="24" font-weight="600">Split</text>
  <text x="98" y="330" fill="#D7ECFF" font-family="Segoe UI, Arial, sans-serif" font-size="24" font-weight="600">Extract Text</text>
  <text x="98" y="400" fill="#D7ECFF" font-family="Segoe UI, Arial, sans-serif" font-size="24" font-weight="600">Redact</text>
  <text x="386" y="118" fill="#F4FBFF" font-family="Segoe UI, Arial, sans-serif" font-size="34" font-weight="700">PDF Toolkit workspace</text>
  <text x="406" y="226" fill="#72E0A0" font-family="Segoe UI, Arial, sans-serif" font-size="20" font-weight="700">Windows-first desktop workflow kit</text>
  <text x="406" y="266" fill="#F4FBFF" font-family="Segoe UI, Arial, sans-serif" font-size="28" font-weight="700">Start with a common PDF task</text>
  <text x="406" y="308" fill="#8CA8BC" font-family="Segoe UI, Arial, sans-serif" font-size="20">Merge, split, extract, redact, and automate from one app.</text>
  <text x="386" y="714" fill="#8CA8BC" font-family="Segoe UI, Arial, sans-serif" font-size="18">Three-pane layout with operation browser, workspace, and live results.</text>
  <defs>
    <linearGradient id="a" x1="386" y1="178" x2="780" y2="354" gradientUnits="userSpaceOnUse">
      <stop stop-color="#143242"/>
      <stop offset="1" stop-color="#0D1A22"/>
    </linearGradient>
  </defs>
</svg>
