<svg xmlns="http://www.w3.org/2000/svg" width="1400" height="840" viewBox="0 0 1400 840" fill="none">
  <rect width="1400" height="840" rx="28" fill="#09131A"/>
  <rect x="32" y="32" width="1336" height="776" rx="24" fill="#0F1D26" stroke="#244453" stroke-width="2"/>
  <rect x="72" y="82" width="1256" height="84" rx="18" fill="url(#a)" stroke="#2D5A6C"/>
  <rect x="72" y="196" width="1256" height="556" rx="18" fill="#102532"/>
  <rect x="102" y="232" width="220" height="34" rx="12" fill="#19303D"/>
  <rect x="350" y="232" width="160" height="34" rx="12" fill="#19303D"/>
  <rect x="538" y="232" width="160" height="34" rx="12" fill="#19303D"/>
  <rect x="726" y="232" width="252" height="34" rx="12" fill="#19303D"/>
  <rect x="1006" y="232" width="282" height="34" rx="12" fill="#19303D"/>
  <rect x="102" y="292" width="1186" height="70" rx="14" fill="#173141"/>
  <rect x="102" y="380" width="1186" height="70" rx="14" fill="#302715"/>
  <rect x="102" y="468" width="1186" height="70" rx="14" fill="#173141"/>
  <rect x="102" y="556" width="1186" height="70" rx="14" fill="#173141"/>
  <text x="100" y="130" fill="#F4FBFF" font-family="Segoe UI, Arial, sans-serif" font-size="34" font-weight="700">Diagnostics tab</text>
  <text x="100" y="162" fill="#8CA8BC" font-family="Segoe UI, Arial, sans-serif" font-size="20">Core dependencies are marked separately from optional OCR add-ons.</text>
  <text x="130" y="338" fill="#FFFFFF" font-family="Segoe UI, Arial, sans-serif" font-size="24" font-weight="700">pypdf</text>
  <text x="130" y="426" fill="#FFFFFF" font-family="Segoe UI, Arial, sans-serif" font-size="24" font-weight="700">tesseract</text>
  <text x="562" y="338" fill="#72E0A0" font-family="Segoe UI, Arial, sans-serif" font-size="24" font-weight="700">ready</text>
  <text x="562" y="426" fill="#FFD166" font-family="Segoe UI, Arial, sans-serif" font-size="24" font-weight="700">optional add-on</text>
  <defs>
    <linearGradient id="a" x1="72" y1="82" x2="1328" y2="166" gradientUnits="userSpaceOnUse">
      <stop stop-color="#143242"/>
      <stop offset="1" stop-color="#0D1A22"/>
    </linearGradient>
  </defs>
</svg>
