<svg xmlns="http://www.w3.org/2000/svg" width="1400" height="840" viewBox="0 0 1400 840" fill="none">
  <rect width="1400" height="840" rx="28" fill="#09131A"/>
  <rect x="32" y="32" width="1336" height="776" rx="24" fill="#0F1D26" stroke="#244453" stroke-width="2"/>
  <rect x="72" y="90" width="1256" height="660" rx="20" fill="#102532"/>
  <rect x="104" y="122" width="384" height="596" rx="18" fill="#142632"/>
  <rect x="508" y="122" width="790" height="596" rx="18" fill="#142632"/>
  <rect x="136" y="164" width="320" height="54" rx="14" fill="#FF6F61"/>
  <rect x="136" y="236" width="320" height="54" rx="14" fill="#19303D"/>
  <rect x="136" y="308" width="320" height="54" rx="14" fill="#19303D"/>
  <rect x="136" y="412" width="320" height="214" rx="16" fill="#0F1D26" stroke="#2D5A6C"/>
  <rect x="540" y="164" width="264" height="28" rx="14" fill="#72E0A0"/>
  <rect x="540" y="214" width="408" height="18" rx="9" fill="#8CA8BC"/>
  <rect x="540" y="274" width="706" height="82" rx="18" fill="#19303D"/>
  <rect x="540" y="384" width="706" height="246" rx="18" fill="#0F1D26" stroke="#2D5A6C"/>
  <rect x="540" y="654" width="206" height="40" rx="14" fill="#11B8F5"/>
  <rect x="764" y="654" width="206" height="40" rx="14" fill="#19303D"/>
  <text x="136" y="198" fill="#FFFFFF" font-family="Segoe UI, Arial, sans-serif" font-size="24" font-weight="700">Redact sensitive text</text>
  <text x="540" y="154" fill="#FFD166" font-family="Segoe UI, Arial, sans-serif" font-size="30" font-weight="700">Example operation</text>
  <text x="540" y="206" fill="#F4FBFF" font-family="Segoe UI, Arial, sans-serif" font-size="22" font-weight="700">Review the file, set rules, then export a clean copy</text>
  <text x="564" y="324" fill="#D7ECFF" font-family="Segoe UI, Arial, sans-serif" font-size="20">Pattern rules, page filters, and output controls stay together in one workspace.</text>
  <text x="606" y="681" fill="#05131A" font-family="Segoe UI, Arial, sans-serif" font-size="20" font-weight="700">Run</text>
  <text x="822" y="681" fill="#D7ECFF" font-family="Segoe UI, Arial, sans-serif" font-size="20" font-weight="700">Save report</text>
</svg>
