<svg xmlns="http://www.w3.org/2000/svg" width="1400" height="840" viewBox="0 0 1400 840" fill="none">
  <rect width="1400" height="840" rx="28" fill="#09131A"/>
  <rect x="32" y="32" width="1336" height="776" rx="24" fill="#0F1D26" stroke="#244453" stroke-width="2"/>
  <rect x="68" y="86" width="240" height="656" rx="18" fill="#102532"/>
  <rect x="340" y="86" width="988" height="656" rx="18" fill="#102532"/>
  <rect x="92" y="118" width="192" height="118" rx="14" fill="#142632"/>
  <rect x="92" y="254" width="192" height="118" rx="14" fill="#142632"/>
  <rect x="92" y="390" width="192" height="118" rx="14" fill="#142632"/>
  <rect x="376" y="120" width="444" height="44" rx="14" fill="#19303D"/>
  <rect x="844" y="120" width="448" height="44" rx="14" fill="#19303D"/>
  <rect x="376" y="188" width="916" height="518" rx="22" fill="#EDF3F7"/>
  <rect x="440" y="246" width="788" height="402" rx="12" fill="white" stroke="#C8D3DA" stroke-width="2"/>
  <rect x="510" y="300" width="648" height="18" rx="9" fill="#406C83"/>
  <rect x="510" y="348" width="544" height="18" rx="9" fill="#406C83"/>
  <rect x="510" y="396" width="598" height="18" rx="9" fill="#406C83"/>
  <rect x="510" y="466" width="276" height="120" rx="16" fill="#DDE8EE"/>
  <rect x="824" y="466" width="276" height="120" rx="16" fill="#DDE8EE"/>
  <text x="92" y="156" fill="#D7ECFF" font-family="Segoe UI, Arial, sans-serif" font-size="18" font-weight="600">Page thumbnails</text>
  <text x="376" y="110" fill="#FFD166" font-family="Segoe UI, Arial, sans-serif" font-size="30" font-weight="700">Preview workflow</text>
  <text x="392" y="150" fill="#8CA8BC" font-family="Segoe UI, Arial, sans-serif" font-size="20">Inspect the source PDF before you write anything to disk.</text>
  <text x="864" y="149" fill="#D7ECFF" font-family="Segoe UI, Arial, sans-serif" font-size="20" font-weight="600">Live results</text>
</svg>
